<svg width="44" height="44" viewBox="0 0 44 44" fill="none" xmlns="http://www.w3.org/2000/svg">
<g clip-path="url(#clip0_57_91)">
<path d="M44.2365 42.922L43.3052 42.0347C42.8611 41.4465 42.3647 40.8998 41.822 40.4012L41.8128 40.3939C41.2653 39.8964 40.6963 39.4234 40.106 38.9749C39.633 38.6497 38.9828 38.258 38.1553 37.7997C37.4839 37.5017 36.9488 36.9626 36.6557 36.289L36.6483 36.2707L36.5603 36.2267C36.949 36.1882 37.3047 36.1167 37.6457 36.0159L37.6035 36.0269L38.6485 35.739C39.0812 35.6034 39.5817 35.5154 40.1005 35.4952H40.1115C40.6578 35.4732 41.173 35.3852 41.6643 35.2404L41.6185 35.2514C41.8556 35.1927 42.0994 35.1261 42.35 35.0515C42.6006 34.977 42.8151 34.9104 42.9935 34.8517V34.5419C42.8163 34.2766 42.6018 33.9735 42.35 33.6325C42.1165 33.3135 41.8436 33.0252 41.5378 32.7745L41.5287 32.7672C40.7599 32.0876 39.9636 31.4301 39.1398 30.7945C38.3676 30.1945 37.5654 29.634 36.7363 29.1152L36.6117 29.0419C36.1335 28.7293 35.6272 28.4623 35.0992 28.2444L35.0368 28.2224C34.4893 27.9999 33.9497 27.7561 33.418 27.4909C33.2265 27.3971 33.0255 27.3239 32.8185 27.2727L32.7983 27.269C32.5915 27.2279 32.4044 27.1188 32.2667 26.9592L32.2648 26.9574C32.0048 26.6121 31.7863 26.2373 31.614 25.8409L31.5993 25.8042C31.4221 25.3899 31.2302 24.992 31.0237 24.6107C30.58 23.7527 30.151 22.8806 29.7367 21.9945C29.3223 21.1084 28.9245 20.2211 28.5432 19.3325C28.2779 18.741 28.0341 18.15 27.8117 17.5597C27.5867 16.9579 27.3036 16.3795 26.9665 15.8327L26.9903 15.8749C26.2598 14.6223 25.4445 13.4211 24.5502 12.2797L24.6015 12.3494C23.7832 11.3129 22.8891 10.3386 21.9267 9.43436L21.912 9.42152C20.9655 8.5335 19.9664 7.70333 18.92 6.93552L18.8302 6.87136C17.7351 6.07569 16.5373 5.29225 15.2368 4.52102C14.684 4.19861 14.0884 3.95604 13.4677 3.80052L13.42 3.78952L11.3795 3.27986L10.2263 3.19186C9.84255 3.16252 9.45817 3.14786 9.07316 3.14786C8.81354 3.01198 8.57463 2.83974 8.36366 2.63636C8.15976 2.44239 7.94359 2.26174 7.7165 2.09552L7.69817 2.08269C6.50727 1.39549 5.25298 0.824519 3.95267 0.37769L3.79683 0.330023C3.47344 0.145006 3.11258 0.0350999 2.74096 0.00844235C2.36934 -0.0182152 1.99648 0.0390585 1.65 0.176023L1.6665 0.170523C1.32531 0.304323 1.01781 0.511693 0.76589 0.777871C0.513972 1.04405 0.32383 1.36249 0.208999 1.71052L0.203499 1.72886C0.00895104 2.19604 -0.0542561 2.70751 0.020705 3.208C0.0956661 3.7085 0.305946 4.179 0.628832 4.56869L0.625166 4.56319C1.29005 5.4493 1.79972 6.14597 2.15417 6.65319C2.41939 7.00886 2.69317 7.37858 2.9755 7.76236C3.234 8.10702 3.46317 8.50119 3.64833 8.91736L3.663 8.95586C3.76567 9.17402 3.8555 9.43436 3.9215 9.70202L3.927 9.73136C3.98567 9.98313 4.05961 10.2569 4.14883 10.5527C4.41405 11.2322 4.66522 11.9289 4.90233 12.6427C5.16083 13.4219 5.44683 14.0819 5.77867 14.7107L5.74383 14.6374C5.92105 14.9625 6.09889 15.2802 6.27733 15.5907C6.45578 15.9011 6.64767 16.2042 6.853 16.5C6.96944 16.6757 7.11963 16.8265 7.29483 16.9437L7.30033 16.9474C7.39214 17.0132 7.46776 17.0991 7.52144 17.1985C7.57512 17.298 7.60546 17.4083 7.61017 17.5212V17.523C7.39386 17.8443 7.25746 18.2127 7.21233 18.5974L7.2105 18.6084C7.15298 19.0402 7.05915 19.4664 6.93 19.8825L6.94467 19.8275C6.5134 21.1479 6.29616 22.5287 6.30117 23.9177C6.30117 24.3907 6.325 24.8564 6.3745 25.3165L6.369 25.2597C6.479 27.016 7.00883 28.6294 7.85767 30.0264L7.832 29.9805C8.19316 30.5214 8.58 30.9925 9.00717 31.4234C9.25532 31.7025 9.58963 31.8907 9.95699 31.9582C10.3244 32.0256 10.7037 31.9683 11.0348 31.7955L11.0257 31.7992C11.3434 31.6872 11.6206 31.4832 11.822 31.2133C12.0234 30.9433 12.14 30.6195 12.1568 30.283V30.2794C12.2448 29.4104 12.3768 28.633 12.5583 27.874L12.5345 27.9969C12.581 27.8732 12.6046 27.7421 12.6042 27.61L12.6005 27.5275V27.5312C12.5858 27.398 12.6671 27.2721 12.8443 27.1535V27.2415C13.0216 27.6559 13.2061 28.0696 13.398 28.4827C13.5899 28.8958 13.7891 29.3095 13.9957 29.7239C14.5365 30.547 15.1103 31.2657 15.741 31.9275L15.7355 31.922C16.3629 32.5995 17.0549 33.2141 17.8017 33.7572L17.842 33.7847C18.2307 34.0817 18.5717 34.4025 18.8797 34.7527L18.887 34.76C19.1767 35.101 19.5232 35.3815 19.9137 35.5924L19.932 35.6015V35.5575H20.02C19.9504 35.4018 19.8354 35.2708 19.69 35.1817L19.6863 35.1799C19.5518 35.1057 19.4226 35.0224 19.2995 34.9305L19.3087 34.936C19.0434 34.6708 18.7697 34.375 18.4873 34.0487C18.205 33.7224 17.9465 33.4119 17.7118 33.1174C17.0909 32.2594 16.4988 31.3629 15.9353 30.4279C15.3719 29.4929 14.8396 28.5426 14.3385 27.577C14.1014 27.104 13.8722 26.6164 13.651 26.114C13.4298 25.6117 13.2153 25.124 13.0075 24.651C12.9134 24.4588 12.8539 24.2515 12.8315 24.0387V24.0295C12.8266 23.9288 12.7956 23.8311 12.7416 23.746C12.6876 23.6608 12.6125 23.5911 12.5235 23.5437L12.5198 23.5419C12.3099 23.9027 12.0589 24.238 11.7718 24.541L11.7737 24.5392C11.4792 24.8495 11.2421 25.2095 11.0733 25.6025L11.0642 25.6264C10.7897 26.3034 10.6114 27.0155 10.5343 27.742L10.5307 27.7769C10.4427 28.5603 10.3541 29.3657 10.2648 30.1932L10.1768 30.2372L10.1328 30.2812C9.90334 30.2352 9.68706 30.1383 9.49989 29.9978C9.31271 29.8572 9.15938 29.6766 9.05116 29.469L9.0475 29.4599C8.82505 29.0309 8.62583 28.6092 8.44983 28.1949C7.96957 26.9383 7.7073 25.609 7.67433 24.2642V24.2477C7.57911 22.8107 7.75703 21.3687 8.19867 19.998L8.17667 20.0787C8.26467 19.7536 8.45655 19.206 8.75233 18.436C9.04811 17.666 9.10739 17.1337 8.93017 16.8392C8.84272 16.5477 8.67423 16.287 8.44433 16.0875L8.4425 16.0857C8.22337 15.8959 8.01812 15.6907 7.82833 15.4715L7.82283 15.4642C7.61628 15.166 7.41705 14.8482 7.22517 14.5109C7.03328 14.1735 6.86339 13.8411 6.7155 13.5135C6.37411 12.7057 6.08387 11.8773 5.8465 11.033L5.80617 10.8699C5.54531 9.92652 5.21061 9.00517 4.80517 8.11436L4.85283 8.23169C4.66316 7.79636 4.42319 7.38473 4.13783 7.00519L4.14883 7.01986C3.85061 6.62141 3.58417 6.24436 3.3495 5.88869C3.05128 5.50491 2.7555 5.13519 2.46217 4.77952C2.1565 4.40931 1.89444 4.00515 1.68117 3.57502L1.66467 3.53836C1.57086 3.34684 1.49773 3.14587 1.4465 2.93886L1.44283 2.91869C1.41134 2.81454 1.40306 2.70475 1.41858 2.59705C1.4341 2.48936 1.47304 2.38637 1.53267 2.29536L1.53083 2.29902C1.55043 2.19989 1.59671 2.10798 1.66467 2.03319C1.73889 1.96685 1.82934 1.92131 1.92683 1.90119H1.9305C2.07515 1.80738 2.24143 1.75222 2.41347 1.74099C2.5855 1.72975 2.75755 1.76282 2.91317 1.83702L2.90767 1.83519C3.30917 1.94886 3.63367 2.06252 3.95083 2.19269L3.88483 2.16886C4.44583 2.40597 4.96344 2.63513 5.43767 2.85636C5.984 3.11669 6.44967 3.39169 6.88967 3.69786L6.85667 3.67586C7.09378 3.82375 7.33028 3.9863 7.56616 4.16352C7.80205 4.34074 8.05322 4.51858 8.31967 4.69702H8.94116C9.41417 4.69702 9.9165 4.71963 10.4482 4.76486C10.9853 4.80702 11.4822 4.90786 11.9552 5.06552L11.9112 5.05269C12.793 5.31486 13.5502 5.62469 14.2688 5.99686L14.1937 5.96202C14.9184 6.33113 15.6059 6.72286 16.2562 7.13719C17.336 7.81002 18.2692 8.49936 19.1473 9.25286L19.1162 9.22719C20.0328 10.0119 20.8652 10.8167 21.6462 11.6674L21.6645 11.6894C22.4272 12.5217 23.155 13.4255 23.8205 14.3734L23.8773 14.4595C24.4897 15.3249 25.1075 16.3259 25.663 17.3635L25.74 17.5194C25.9037 17.8375 26.047 18.1657 26.169 18.502L26.1892 18.5625C26.3077 18.9023 26.4403 19.2506 26.587 19.6075C26.9121 20.347 27.2604 21.0931 27.632 21.846C28.0036 22.5989 28.3519 23.331 28.677 24.0424L29.6523 26.1709C29.9952 26.9152 30.3783 27.5569 30.8238 28.149L30.8037 28.1215C31.1758 28.5194 31.6727 28.798 32.23 28.8952L32.2447 28.897C32.9193 29.0657 33.4877 29.2564 34.0377 29.4819L33.9515 29.4507C34.2137 29.5699 34.551 29.6964 34.8975 29.8082L34.9708 29.8284C35.3595 29.9475 35.6968 30.1052 36.0067 30.3032L35.9902 30.294C36.5897 30.6295 37.0975 30.9595 37.5815 31.3189L37.543 31.2914C38.0453 31.6605 38.5477 32.0088 39.05 32.3364C39.2871 32.5136 39.6849 32.7721 40.2435 33.1119C40.8021 33.4516 41.0978 33.7694 41.1308 34.0652C40.0076 34.0263 38.883 34.0796 37.7685 34.2247L37.8712 34.2137C36.9404 34.3346 36.029 34.5749 35.1597 34.9287L35.233 34.903C35.0026 35.0007 34.7647 35.0798 34.5217 35.1395L34.4868 35.1469C34.3606 35.165 34.244 35.2248 34.1556 35.3169C34.0672 35.4089 34.0122 35.5278 33.9992 35.6547V35.6565C34.111 35.7959 34.2008 35.9572 34.2613 36.1332L34.265 36.1442C34.3273 36.3312 34.4025 36.4925 34.4942 36.6429L34.4887 36.6319C34.7068 37.0187 34.9415 37.3524 35.2055 37.6604L35.1982 37.6512C35.4567 37.9702 35.7482 38.247 36.0708 38.4835L36.0837 38.4927C36.3819 38.7298 36.6923 38.9736 37.015 39.2242C37.3102 39.4552 37.6438 39.6825 37.9903 39.8879L38.0343 39.9117C38.555 40.2307 39.16 40.535 39.7907 40.7899L39.875 40.8192C40.5607 41.0942 41.1492 41.4132 41.6955 41.7927L41.6662 41.7725C42.0218 41.9791 42.3763 42.2082 42.7295 42.46C43.0827 42.7118 43.4225 42.9556 43.7488 43.1915C43.8827 43.3235 44 43.4702 44.099 43.6297L44.1045 43.6389C44.2736 43.8339 44.5085 43.9598 44.7645 43.9927H44.77V43.9047C44.6079 43.782 44.4896 43.6104 44.4327 43.4152L44.4308 43.4079C44.3889 43.2313 44.3196 43.0625 44.2255 42.9074L44.2292 42.9147L44.2365 42.922ZM10.1805 7.71286C9.94339 7.71286 9.72155 7.72019 9.515 7.73486C9.31348 7.74782 9.11446 7.78664 8.92283 7.85036L8.93933 7.84486V7.88886H9.02733C9.14589 8.06608 9.295 8.2653 9.47467 8.48652C9.65433 8.70775 9.81689 8.92225 9.96233 9.13002L10.6718 10.593L10.7598 10.549C10.9663 10.4004 11.1265 10.1964 11.2218 9.96052L11.2255 9.95136C11.3208 9.69652 11.3758 9.39952 11.3758 9.09152L11.374 8.99252V8.99802C11.2909 8.91717 11.2237 8.82139 11.176 8.71569L11.1742 8.71019L11.0257 8.37652C10.9306 8.22465 10.7946 8.10265 10.6333 8.02452L10.6278 8.02269C10.4631 7.94403 10.3121 7.83942 10.1805 7.71286Z" fill="#66ECBC"/>
</g>
<defs>
<clipPath id="clip0_57_91">
<rect width="44" height="44" fill="white"/>
</clipPath>
</defs>
</svg>
